<svg xmlns="http://www.w3.org/2000/svg" width="308" height="78" fill="none" viewBox="0 0 308 78">
  <g filter="url(#a)">
    <rect width="300" height="70" x="4" y="2" fill="#fff" rx="12" shape-rendering="crispEdges"/>
    <path fill="#4285F4" fill-rule="evenodd" d="M65.168 37.167c0-1.12-.1-2.199-.284-3.233H50.192v6.114h8.395a7.279 7.279 0 0 1-3.112 4.772v3.966h5.041c2.95-2.752 4.652-6.805 4.652-11.619Z" clip-rule="evenodd"/>
    <path fill="#34A853" fill-rule="evenodd" d="M50.192 52.616c4.212 0 7.743-1.416 10.324-3.83l-5.041-3.967c-1.397.949-3.184 1.51-5.283 1.51-4.063 0-7.502-2.781-8.729-6.518h-5.212v4.096c2.567 5.166 7.843 8.709 13.94 8.709Z" clip-rule="evenodd"/>
    <path fill="#FBBC05" fill-rule="evenodd" d="M41.463 39.811a9.617 9.617 0 0 1-.49-3.003c0-1.042.178-2.055.49-3.004V29.71h-5.212a15.972 15.972 0 0 0-1.659 7.099c0 2.55.603 4.965 1.66 7.099l5.211-4.096Z" clip-rule="evenodd"/>
    <path fill="#EA4335" fill-rule="evenodd" d="M50.192 27.287c2.29 0 4.347.798 5.963 2.364l4.475-4.534C57.928 22.567 54.397 21 50.192 21c-6.098 0-11.374 3.542-13.94 8.709l5.211 4.095c1.227-3.736 4.666-6.517 8.729-6.517Z" clip-rule="evenodd"/>
    <path fill="#000" fill-opacity=".54" d="M103.256 25.524h15.82V27.4h-15.82v-1.876ZM100.4 36.388h22.876v1.904H100.4v-1.904Zm10.22 1.26h2.324v11.564h-2.324V37.648Zm7.364-12.124h2.268v2.184c0 2.632 0 5.6-.952 9.884l-2.296-.308c.98-4.088.98-7.028.98-9.576v-2.184Zm11.086-.588h16.296v1.876H129.07v-1.876Zm-2.912 8.344h22.932v1.904h-22.932V33.28Zm17.696-8.344h2.268v1.624c0 1.82 0 4.172-.672 7.308l-2.268-.252c.672-3.08.672-5.264.672-7.056v-1.624Zm-15.008 12.74h17.36v6.44h-14.98v3.528h-2.324v-5.32h15.008v-2.772h-15.064v-1.876Zm.056 9.352h17.948v1.876h-17.948v-1.876Zm29.275-2.884h22.932v1.932h-22.932v-1.932Zm10.248-5.432h2.324v6.244h-2.324v-6.244Zm-7.476-12.964h17.332v7.672h-14.952v5.068h-2.296v-6.944h14.952v-3.92h-15.036v-1.876Zm.084 11.76h17.836v1.904h-17.836v-1.904Zm25.366-10.948h16.296v1.876h-16.296V26.56Zm-2.464 16.996h22.876v1.932h-22.876v-1.932Zm17.528-16.996h2.268v2.52c0 3.248 0 6.86-.952 12.32l-2.324-.224c1.008-5.18 1.008-8.96 1.008-12.096v-2.52Zm26.626-2.66h2.352v18.48h-2.352V23.9Zm-13.916 22.82h17.024v1.904h-17.024V46.72Zm0-6.244h2.296v6.888h-2.296v-6.888Zm2.688-14.84c3.78 0 6.58 2.576 6.58 6.244 0 3.64-2.8 6.244-6.58 6.244-3.78 0-6.608-2.604-6.608-6.244 0-3.668 2.828-6.244 6.608-6.244Zm0 2.016c-2.464 0-4.34 1.736-4.34 4.228 0 2.464 1.876 4.2 4.34 4.2s4.34-1.736 4.34-4.2c0-2.492-1.876-4.228-4.34-4.228Z"/>
  </g>
  <defs>
    <filter id="a" width="307.026" height="77.026" x=".487" y=".244" color-interpolation-filters="sRGB" filterUnits="userSpaceOnUse">
      <feFlood flood-opacity="0" result="BackgroundImageFix"/>
      <feColorMatrix in="SourceAlpha" result="hardAlpha" values="0 0 0 0 0 0 0 0 0 0 0 0 0 0 0 0 0 0 127 0"/>
      <feOffset dy="1.756"/>
      <feGaussianBlur stdDeviation="1.756"/>
      <feColorMatrix values="0 0 0 0 0 0 0 0 0 0 0 0 0 0 0 0 0 0 0.25 0"/>
      <feBlend in2="BackgroundImageFix" result="effect1_dropShadow_58_92"/>
      <feColorMatrix in="SourceAlpha" result="hardAlpha" values="0 0 0 0 0 0 0 0 0 0 0 0 0 0 0 0 0 0 127 0"/>
      <feOffset/>
      <feComposite in2="hardAlpha" operator="out"/>
      <feColorMatrix values="0 0 0 0 0 0 0 0 0 0 0 0 0 0 0 0 0 0 0.08 0"/>
      <feBlend in2="effect1_dropShadow_58_92" result="effect2_dropShadow_58_92"/>
      <feBlend in="SourceGraphic" in2="effect2_dropShadow_58_92" result="shape"/>
    </filter>
  </defs>
</svg>
