<svg xmlns="http://www.w3.org/2000/svg" width="200" height="45" fill="none" viewBox="0 0 200 45">
  <rect width="200" height="45" fill="#FEE500" rx="6"/>
  <g clip-path="url(#a)">
    <path fill="#000" fill-rule="evenodd" d="M29 14.444c-4.71 0-9 3.786-9 6.989 0 2.4 1.558 4.517 3.931 5.775l-.998 3.666c-.089.325.28.583.563.396l4.377-2.905a11.6 11.6 0 0 0 1.127.057c4.97 0 9-3.129 9-6.989 0-3.203-4.03-6.989-9-6.989Z" clip-rule="evenodd" opacity=".902"/>
  </g>
  <path fill="#000" d="M69.293 18.386h1.174c0 3.785-1.275 7.265-5.974 9.599l-.652-.928c4.147-2.044 5.452-4.973 5.452-8.54v-.131Zm-4.742 0h5.453v.972H64.55v-.972Zm4.553 3.248v.928l-5.016.493-.189-1.073 5.206-.348Zm3.48-4.625h1.218V30.13h-1.218V17.009Zm.885 5.321h2.422v1h-2.422v-1Zm9.163-3.944h1.174c0 3.785-1.276 7.265-5.974 9.599l-.652-.928c4.147-2.044 5.452-4.973 5.452-8.54v-.131Zm-4.742 0h5.452v.972H77.89v-.972Zm4.553 3.248v.928l-5.017.493-.188-1.073 5.205-.348Zm3.48-4.625h1.218V30.13h-1.218V17.009Zm.885 5.321h2.421v1h-2.421v-1Zm8.902 2.103h1.203v3.262H95.71v-3.262Zm.609-6.555c2.77 0 4.756 1.349 4.756 3.437s-1.987 3.436-4.756 3.436c-2.77 0-4.77-1.348-4.77-3.436s2-3.437 4.77-3.437Zm0 .957c-2.088 0-3.61.986-3.61 2.48 0 1.493 1.522 2.48 3.61 2.48 2.073 0 3.596-.987 3.596-2.48 0-1.494-1.523-2.48-3.596-2.48Zm-5.916 8.628h11.875v1H90.403v-1Zm16.581.058h11.876v1h-11.876v-1Zm5.307-2.813h1.204v3.234h-1.204v-3.234Zm-3.871-6.713h8.975v3.973h-7.743v2.624h-1.189v-3.596h7.743v-2.03h-7.786v-.972Zm.043 6.09h9.237v.985h-9.237v-.986Zm13.136-5.67h8.439v.972h-8.439v-.972Zm-1.276 8.802h11.847v1h-11.847v-1Zm9.077-8.802h1.175v1.305c0 1.682 0 3.553-.493 6.38l-1.204-.116c.522-2.683.522-4.64.522-6.264v-1.305Zm13.789-1.377h1.218v9.57h-1.218v-9.57Zm-7.207 11.817h8.816v.986h-8.816v-.986Zm0-3.233h1.189v3.567h-1.189v-3.567Zm1.392-7.686c1.958 0 3.408 1.334 3.408 3.234 0 1.885-1.45 3.233-3.408 3.233-1.957 0-3.422-1.348-3.422-3.233 0-1.9 1.465-3.234 3.422-3.234Zm0 1.044c-1.276 0-2.247.9-2.247 2.19 0 1.276.971 2.175 2.247 2.175 1.276 0 2.248-.899 2.248-2.175 0-1.29-.972-2.19-2.248-2.19Z"/>
  <defs>
    <clipPath id="a">
      <path fill="#fff" d="M20 13.5h18v18H20z"/>
    </clipPath>
  </defs>
</svg>
