<svg xmlns="http://www.w3.org/2000/svg" width="701" height="632" fill="none" viewBox="0 0 701 632">
  <mask id="a" width="316" height="171" x="193" y="160" maskUnits="userSpaceOnUse" style="mask-type:luminance">
    <path fill="#fff" d="M193.001 160.4h315.45v169.884h-315.45V160.4Z"/>
  </mask>
  <g mask="url(#a)">
    <path fill="#00ADB5" fill-rule="evenodd" d="M472.218 228.363c-44.331 43.401-135.994 84.284-204.662 91.291-67.355 6.884-87.611-21.342-46.588-63.358-.927.86-1.825 1.754-2.731 2.614-47.244 46.238-26.214 77.665 46.96 70.194 73.174-7.478 170.796-51.022 218.04-97.261 47.245-46.232 26.222-77.665-46.952-70.187-1.38.143-2.782.293-4.162.464 65.47-5.5 83.587 23.709 40.095 66.243Z" clip-rule="evenodd"/>
  </g>
  <path fill="#fff" fill-rule="evenodd" d="M462.317 227.626c-41.213 40.317-126.385 78.307-190.212 84.823-62.046 6.338-81.09-19.391-44.251-57.879-.372.341-.745.689-1.117 1.037-39.168 40.091-19.803 67.008 44.44 60.444 65.522-6.686 153.001-45.693 195.295-87.094 41.505-40.61 24.206-68.462-38.271-63.208-.555.075-1.109.123-1.643.198 59.564-4.517 75.774 22.475 35.73 61.679h.029Z" clip-rule="evenodd"/>
  <path fill="#00ADB5" fill-rule="evenodd" d="M315.676 208.481v-6.714l26.295-14.137v8.12l-18.642 10.016v13.372l4.367-2.347-12.049 6.469v-14.779h.029Zm26.295 39.798-18.642 10.016v13.373l4.367-2.347-12.049 6.461v-21.485l26.302-14.137v8.119h.022Zm0-78.784-18.642 10.023v13.373l4.367-2.347-12.049 6.461V175.52l26.302-14.138v8.113h.022Zm0 52.53-18.642 10.016v13.373l4.367-2.341-12.049 6.489V228.07l26.302-14.137v8.119l.022-.027Zm27.865-52.823-.058 4.735-2.965-1.604-20.395-10.951v21.486l14.254 7.676 6.119 3.281v4.783l-20.395-10.95v21.485l14.247 7.676 6.119 3.282v4.789l-20.395-10.957v21.492l14.246 7.669 6.12 3.282v4.789l-20.388-10.957V261.7l14.246 7.669 6.12 3.282v2.742c-.694.294-1.41.587-2.096.908l-18.27-9.839v17.146c-1.49.539-2.972 1.085-4.454 1.624v-18.77l-26.295 14.137v13.073c-1.482.423-2.965.839-4.454 1.235v-83.983l-26.295-14.137v104.015a240.052 240.052 0 0 1-16.605 2.347c-1.402.143-2.833.266-4.294.396v-83.444l16.474-8.857v-14.457l-26.295 14.137v93.133c-1.482.027-2.972.054-4.454.027v-95.555l16.473-8.856 14.276-7.676 2.227-1.18 2.227 1.18 14.268 7.676 12.056 6.461v-32.962l16.474-8.856 14.275-7.669 2.22-1.187 2.227 1.187 14.247 7.669 9.135 4.913.058-.027Z" clip-rule="evenodd"/>
  <mask id="b" width="69" height="165" x="371" y="115" maskUnits="userSpaceOnUse" style="mask-type:luminance">
    <path fill="#fff" d="M371.997 115.444h67.296v163.729h-67.296V115.444Z"/>
  </mask>
  <g mask="url(#b)">
    <path fill="#EEE" fill-rule="evenodd" d="m388.77 124.396-16.473 8.856v145.444c1.482-.662 2.964-1.358 4.447-2.047V135.647l26.302-14.138v14.458l-16.474 8.856v127.091a382.498 382.498 0 0 0 20.892-11.251V121.509l26.302 14.138v107.918a362.744 362.744 0 0 0 4.447-3.33V133.252l-16.474-8.856-14.275-7.669-2.22-1.188-2.227 1.188-14.276 7.669h.029Z" clip-rule="evenodd"/>
  </g>
  <path fill="#EEE" d="M141.694 384.56h5v36.84h-5V403h-3v16.76h-4.92v-10.68l-2.96 3.96c-3.28-1.76-5.44-4.72-6.72-8.4-1.2 4.24-3.36 7.68-6.8 9.76l-3.16-4c5.48-3.2 7.24-9.72 7.24-16.8v-1h-6.04v-4.28h16.68v4.28h-5.52v1c0 6.44 1.84 12.56 7.28 15.4v-23.84h4.92v13.52h3v-14.12Zm34.117 12.56v-6.56h-15.16v6.56h15.16Zm5.16-10.72v14.88h-25.52V386.4h25.52Zm4 18.8v4.2h-14.16v12.04h-5.28V409.4h-13.92v-4.2h33.36Zm15.117-12.64v1.8c0 6.16 1.8 12.36 7.12 15.48l-3.08 3.84c-3.24-1.96-5.36-5.12-6.56-9-1.28 4.2-3.44 7.8-6.76 9.88l-3.12-3.88c5.36-3.4 7.28-10 7.28-16.32v-1.8h-5.92v-4.28h16.4v4.28h-5.36Zm7.48 4.6V385.2h4.92v34.56h-4.92v-18.32h-4.68v-4.28h4.68Zm7.44-12.6h5v36.84h-5v-36.84Zm23.636 21.68v6.92h6.36v-6.92h-6.36Zm-.6-14.52v10.36h7.52v-10.36h-7.52Zm12.2 21.44h8.32v4.24h-33.4v-4.24h8.24v-6.92h-5.4v-4.16h4.8v-10.36h-5v-4.2h28v4.2h-5v10.36h4.92v4.16h-5.48v6.92Zm31.037-.08h14.08v4.32h-33.36v-4.32h14v-5.48h-10.16v-12.48h20.56v-3.96h-20.6v-4.2h25.8v12.28h-20.52v4.12h21.36v4.24h-11.16v5.48Zm30.1-10.24-1.92-4.12c7.52-.92 11.44-4.52 11.96-8.04h-10.6v-4.2h27.32v4.2h-10.44c.52 3.52 4.4 7.12 11.88 8.04l-1.88 4.12c-6.44-.88-10.96-3.64-13.16-7.4-2.2 3.76-6.72 6.52-13.16 7.4Zm29.8 2.12v4.2h-14.12v12.36h-5.28v-12.36h-13.88v-4.2h33.28Zm26.037-4.32-2.56 4.16c-4.12-1.32-6.96-3.92-8.6-7.24-1.68 3.56-4.64 6.44-8.96 7.84l-2.6-4.16c6.16-1.96 8.8-6.76 8.8-11.44v-3.52h5.36v3.52c0 4.6 2.6 9 8.56 10.84Zm-17.08 11.72v-4.2h25.12v13.32h-5.32v-9.12h-19.8Zm19.8-27.76h5.32v21.96h-5.32V384.6Zm19.796 24.4c2.04 0 3.2-2.76 3.2-8.44 0-5.64-1.16-8.4-3.2-8.4-2 0-3.2 2.76-3.2 8.4 0 5.68 1.2 8.44 3.2 8.44Zm10.84-10.84V385.2h4.92v34.6h-4.92v-17.36h-2.88c-.48 7.2-3.48 11.52-7.96 11.52-4.88 0-7.96-5.04-7.96-13.4 0-8.32 3.08-13.36 7.96-13.36 4.36 0 7.32 4.08 7.92 10.96h2.92Zm7.48-13.6h5v36.84h-5v-36.84Zm26.26 7.52v16.24c5.28-.04 9.08-.32 13.28-1.04l.52 4.28c-4.96.92-9.36 1.08-16.08 1.08h-3v-24.76h16.68v4.2h-11.4Zm18.64-7.48h5.28v36.96h-5.28v-20h-9v-4.24h9V384.6Zm21.899 3.76h17.36c0 11.04-4.2 20.52-16.44 26.72l-2.96-4.04c8.56-4.4 13.12-10.24 14.08-18.4h-12.04v-4.28Zm32.32 10.28V403h-5.16v18.36h-5.28v-36.8h5.28v14.08h5.16Zm3.677-10.28h9.96c0 10.16-.92 18.08-7.48 25.36l-4.12-3c4.88-5.4 6.32-10.72 6.6-18.12h-4.96v-4.24Zm11.24 0h8.88c0 10.64-.84 19.72-7.28 27.68l-4.16-2.92c4.88-6.16 6.2-12.32 6.48-20.52h-3.92v-4.24ZM544.01 399v4.36h-4.76v18.04h-5.32v-36.84h5.32V399h4.76Zm27.997-14.44h5.28v36.96h-5.28v-36.96Zm-14.52 2.6c5.56 0 9.68 5.04 9.68 13.12 0 8.12-4.12 13.2-9.68 13.2s-9.68-5.08-9.68-13.2c0-8.08 4.12-13.12 9.68-13.12Zm0 4.76c-2.72 0-4.6 2.92-4.6 8.36 0 5.48 1.88 8.4 4.6 8.4 2.72 0 4.6-2.92 4.6-8.4 0-5.44-1.88-8.36-4.6-8.36Z"/>
  <path fill="#00ADB5" d="M282.021 476.56c-4.32 0-7.2-1.76-9.16-5.2l4.04-3c1.16 2.16 2.72 3.08 4.4 3.08 2.6 0 3.96-1.4 3.96-5.48v-19.6h5.92v20.08c0 5.56-2.8 10.12-9.16 10.12Zm27.655 0c-7.2 0-11.52-4.04-11.52-13.88v-16.32h5.92v16.84c0 6.16 2.16 8.24 5.6 8.24 3.52 0 5.76-2.08 5.76-8.24v-16.84h5.68v16.32c0 9.84-4.2 13.88-11.44 13.88Zm18.562-.56v-29.64h6.04l8.6 15.8 2.96 6.4h.2c-.28-3.08-.76-7-.76-10.36v-11.84h5.6V476h-6l-8.56-15.84-3-6.36h-.2c.28 3.2.72 6.92.72 10.32V476h-5.6Zm29.961 0v-29.64h18.16v4.96h-12.24v6.84h10.4v4.96h-10.4v7.92h12.68V476h-18.6Zm31.049-15.44-.88 3.24h7.04l-.88-3.24c-.92-3.08-1.72-6.48-2.56-9.68h-.2a213.2 213.2 0 0 1-2.52 9.68ZM379.008 476l9.48-29.64h6.96l9.52 29.64h-6.2l-2.08-7.6h-9.6l-2.08 7.6h-6Zm29.425 0v-29.64h10.32c6.2 0 11.12 2.2 11.12 9 0 4.44-2.24 7.2-5.64 8.52l6.92 12.12h-6.6l-6.08-11.2h-4.12V476h-5.92Zm5.92-15.88h3.84c3.8 0 5.92-1.6 5.92-4.76 0-3.2-2.12-4.28-5.92-4.28h-3.84v9.04Z"/>
</svg>
