<svg width="60" height="60" viewBox="0 0 164 134" fill="none" xmlns="http://www.w3.org/2000/svg">
<path fill-rule="evenodd" clip-rule="evenodd" d="M148.102 74.2985C124.291 100.889 75.0837 125.945 38.2076 130.242C2.36087 134.423 -8.64163 117.453 12.642 92.069C12.4268 92.294 12.2116 92.5235 11.9965 92.753C-10.6329 119.195 0.555241 136.947 37.6718 132.618C75.5266 128.208 126.067 102.482 150.502 75.176C174.482 48.392 164.487 30.023 128.392 33.488C128.071 33.5375 127.751 33.569 127.443 33.6185C161.855 30.6395 171.221 48.4415 148.085 74.2985H148.102Z" fill="white"/>
<path fill-rule="evenodd" clip-rule="evenodd" d="M63.3808 61.6714V57.2434L78.5726 47.9194V53.2744L67.8021 59.8804V68.7004L70.3249 67.1524L63.364 71.4184V61.6714H63.3808ZM78.5726 87.9199L67.8021 94.5259V103.346L70.3249 101.798L63.364 106.059V91.8889L78.5599 82.5649V87.9199H78.5726ZM78.5726 35.9584L67.8021 42.5689V51.3889L70.3249 49.8409L63.364 54.1024V39.9319L78.5599 30.6079V35.9584H78.5726ZM78.5726 70.6039L67.8021 77.2099V86.0299L70.3249 84.4864L63.364 88.7659V74.5909L78.5599 65.2669V70.6219L78.5726 70.6039ZM94.6713 35.7649L94.6376 38.8879L92.9248 37.8304L81.1418 30.6079V44.7784L89.3768 49.8409L92.9121 52.0054V55.1599L81.1291 47.9374V62.1079L89.3599 67.1704L92.8952 69.3349V72.4939L81.1123 65.2669V79.4419L89.343 84.4999L92.8783 86.6644V89.8234L81.0996 82.5964V96.7714L89.3304 101.829L92.8657 103.994V105.803C92.4649 105.996 92.0515 106.19 91.6549 106.401L81.0996 99.9124V111.221C80.239 111.576 79.3826 111.936 78.5262 112.292V99.9124L63.3344 109.236V117.858C62.478 118.137 61.6216 118.412 60.761 118.673V63.2824L45.5693 53.9584V122.561C42.2787 123.227 39.064 123.735 35.9758 124.109C35.1658 124.203 34.339 124.284 33.4952 124.37V69.3349L43.0127 63.4939V53.9584L27.821 63.2824V124.707C26.9646 124.725 26.104 124.743 25.2476 124.725V61.7029L34.7651 55.8619L43.0127 50.7994L44.2994 50.0209L45.5862 50.7994L53.8296 55.8619L60.7948 60.1234V38.3839L70.3123 32.5429L78.5599 27.4849L79.8424 26.7019L81.1291 27.4849L89.3599 32.5429L94.6376 35.7829L94.6713 35.7649Z" fill="#00ADB5"/>
<mask id="mask0_264_448" style="mask-type:luminance" maskUnits="userSpaceOnUse" x="95" y="0" width="40" height="109">
<path d="M95.9199 0.30957H134.8V108.296H95.9199V0.30957Z" fill="white"/>
</mask>
<g mask="url(#mask0_264_448)">
<path fill-rule="evenodd" clip-rule="evenodd" d="M105.61 6.21356L96.0928 12.0546V107.981C96.9492 107.545 97.8056 107.086 98.662 106.631V13.6341L113.858 4.31006V13.8456L104.34 19.6866V103.508C108.487 101.146 112.525 98.6571 116.41 96.0876V4.31006L131.606 13.6341V84.8106C132.479 84.0771 133.336 83.3436 134.175 82.6146V12.0546L124.658 6.21356L116.41 1.15556L115.128 0.372559L113.841 1.15556L105.593 6.21356H105.61Z" fill="#EEEEEE"/>
</g>
</svg>
